<?xml version="1.0" standalone="no"?>
<!DOCTYPE svg PUBLIC "-//W3C//DTD SVG 20010904//EN"
 "http://www.w3.org/TR/2001/REC-SVG-20010904/DTD/svg10.dtd">
<svg version="1.0" xmlns="http://www.w3.org/2000/svg"
 width="512.000000pt" height="512.000000pt" viewBox="0 0 512.000000 512.000000"
 preserveAspectRatio="xMidYMid meet">
<metadata>
Created by potrace 1.14, written by Peter Selinger 2001-2017
</metadata>
<g transform="translate(0.000000,512.000000) scale(0.100000,-0.100000)"
fill="#000000" stroke="none">
<path d="M1660 4868 c-594 -90 -866 -134 -890 -147 -19 -10 -43 -32 -53 -48
-35 -61 -133 -541 -186 -908 -65 -459 -85 -765 -78 -1195 8 -490 27 -614 195
-1282 l117 -468 188 0 187 0 0 -215 0 -215 -512 0 c-469 0 -516 -2 -547 -18
-99 -50 -105 -177 -12 -239 l34 -23 2186 2 2186 3 57 22 c128 48 242 159 289
281 45 117 36 290 -22 404 l-19 37 67 33 c98 48 185 133 231 226 36 75 37 78
40 212 4 158 -9 226 -66 335 -97 184 -266 302 -731 510 -253 113 -465 215
-519 249 -23 14 -47 24 -52 21 -5 -3 -82 -107 -172 -232 -94 -130 -175 -234
-193 -244 -65 -40 -152 -11 -188 63 -31 64 -19 89 162 341 92 128 170 238 175
245 5 8 -13 35 -53 77 -33 36 -79 92 -102 124 l-42 59 -146 -116 c-80 -63
-182 -145 -226 -180 -44 -36 -95 -71 -114 -79 -107 -46 -221 81 -166 187 11
21 424 362 499 412 7 5 -9 47 -44 120 -30 62 -57 116 -60 120 -3 4 -138 -46
-299 -113 -161 -66 -307 -123 -324 -125 -68 -10 -147 63 -147 135 0 44 30 95
67 114 15 8 156 67 313 132 157 64 286 118 287 119 1 1 -15 55 -36 121 -38
119 -39 120 -67 117 -16 -2 -143 -21 -283 -43 -139 -21 -268 -39 -286 -39 -40
0 -95 36 -113 74 -28 58 -8 138 43 172 15 10 131 33 306 60 156 24 284 46 286
48 3 2 -7 57 -21 122 -34 163 -62 330 -86 519 -12 94 -27 169 -36 183 -25 38
-74 62 -124 61 -25 -1 -430 -59 -900 -131z m354 -3727 c319 -155 900 -293
1394 -333 l152 -12 0 -203 0 -203 -1070 0 -1070 0 0 215 0 215 215 0 215 0 0
200 0 199 28 -13 c15 -7 76 -36 136 -65z m2451 -367 c22 -11 54 -40 70 -63 27
-38 30 -51 30 -115 0 -64 -4 -78 -29 -114 -18 -26 -47 -51 -79 -67 -51 -25
-51 -25 -329 -25 l-278 0 0 195 0 195 63 1 c34 1 134 5 222 9 232 11 283 8
330 -16z"/>
</g>
</svg>
